Coordinates
version=1
nRows=12
nColumns=19
inDegrees=yes

Units are S.I. units (second, meters, Newtons, ...)
If the header above contains a line with 'inDegrees', this indicates whether rotational values are in degrees (yes) or radians (no).

endheader
time	pelvis_obliquity	pelvis_rotation	pelvis_tilt	pelvis_to_ground_tx	pelvis_to_ground_ty	pelvis_to_ground_tz	left_hip_abduction	left_hip_rotation	left_hip_flexion	left_knee_flexion	left_ankle_flexion	left_subtalar_angle	right_hip_abduction	right_hip_rotation	right_hip_flexion	right_knee_flexion	right_ankle_flexion	right_subtalar_angle
      2.21000000	     85.41712211	     -0.43368125	    -11.14533821	     -0.69673563	     -0.70347475	      0.57378208	      7.31156527	    -15.69729918	     40.91427891	    -23.97730001	    -13.91410005	    -16.76212097	      4.38316846	     15.44838010	     -1.68948328	     -7.90977472	    -14.89019956	     -8.99760186
      2.22000000	     86.65681507	      0.20854850	    -11.71802704	     -0.68195980	     -0.70191759	      0.57291088	      5.98178355	    -16.38147245	     40.28241021	    -23.54650191	    -13.13269261	    -16.36582028	      3.25697871	     15.25170058	     -0.46498056	    -10.38079941	    -16.01095139	     -9.04538194
      2.23000000	     88.01450634	      1.13025018	    -12.34447298	     -0.66738393	     -0.70026149	      0.57294339	      4.49344739	    -17.10984103	     39.39835829	    -22.81551825	    -12.39479433	    -15.79253347	      2.08555666	     14.97722968	      1.11243569	    -13.14177912	    -17.15278308	     -9.12047654
      2.24000000	     89.44091966	      2.29685081	    -12.97907328	     -0.65304942	     -0.69850322	      0.57385889	      2.94010755	    -17.90475668	     38.18912022	    -21.67298773	    -11.79214329	    -15.10082423	      0.89748270	     14.53361082	      2.95788315	    -16.13777317	    -18.16113076	     -9.22477607
      2.25000000	     90.84386045	      3.62803714	    -13.61495335	     -0.63898372	     -0.69664815	      0.57558684	      1.38466443	    -18.58178462	     36.67679229	    -20.11294708	    -11.02818604	    -13.52241669	     -0.24350834	     13.94854901	      5.01723420	    -19.28179740	    -19.27044896	     -9.13583848
      2.26000000	     92.20376254	      5.15480947	    -14.11658905	     -0.62523165	     -0.69466802	      0.57799163	     -0.03579457	    -19.51365697	     34.71248162	    -18.06890389	    -10.87175751	    -13.04868027	     -1.35010525	     12.90841782	      7.14913597	    -22.57023448	    -19.60138754	     -9.43250172
      2.27000000	     93.43311402	      6.73731862	    -14.63722853	     -0.61182060	     -0.69256643	      0.58099581	     -1.26879232	    -20.42644460	     32.53083173	    -15.60598594	    -11.07159563	    -12.12819909	     -2.37878960	     11.68931780	      9.46157232	    -25.86211294	    -19.60825847	     -9.50999939
      2.28000000	     94.43712627	      8.38095475	    -14.87414471	     -0.59873279	     -0.69036950	      0.58433217	     -2.37944257	    -21.17335949	     29.95436648	    -12.96619213	    -11.18971142	    -11.63372246	     -3.20754546	     10.16099294	     11.63804529	    -29.13392238	    -19.54474395	     -9.81029013
      2.29000000	     95.22600813	      9.98494876	    -14.98765124	     -0.58598581	     -0.68808270	      0.58796489	     -3.25272020	    -21.98027368	     27.13293152	    -10.05316572	    -12.03434225	    -10.95231730	     -3.86808522	      8.68580449	     13.80434412	    -32.25159053	    -18.68874579	    -10.07919008
      2.30000000	     95.73007845	     11.57125258	    -14.92512823	     -0.57358087	     -0.68577975	      0.59165709	     -3.91208624	    -22.60483614	     24.20476845	     -7.15802095	    -12.71826767	    -10.59646678	     -4.31934723	      7.09048906	     15.94042557	    -35.19709374	    -17.89406067	    -10.46896669
      2.31000000	     95.98414083	     13.12320370	    -14.69492163	     -0.56160031	     -0.68350169	      0.59519125	     -4.40774457	    -23.00869287	     21.33583168	     -4.55739644	    -13.83326464	    -10.49464036	     -4.60811778	      5.39089021	     18.10337167	    -38.03107386	    -16.64685461	    -10.92440648
      2.32000000	     96.00598708	     14.63891375	    -14.32368044	     -0.54999101	     -0.68132896	      0.59851101	     -4.67904990	    -23.42993595	     18.53583470	     -2.18516592	    -14.31321637	    -10.27964290	     -4.72194055	      3.75766747	     20.27581527	    -40.64505777	    -15.92281905	    -11.38191964
